<?xml version="1.0" encoding="UTF-8" standalone="no"?>
<!-- Created with Inkscape (http://www.inkscape.org/) -->

<svg
   xmlns:dc="http://purl.org/dc/elements/1.1/"
   xmlns:cc="http://creativecommons.org/ns#"
   xmlns:rdf="http://www.w3.org/1999/02/22-rdf-syntax-ns#"
   xmlns:svg="http://www.w3.org/2000/svg"
   xmlns="http://www.w3.org/2000/svg"
   xmlns:sodipodi="http://sodipodi.sourceforge.net/DTD/sodipodi-0.dtd"
   xmlns:inkscape="http://www.inkscape.org/namespaces/inkscape"
   id="svg3758"
   version="1.1"
   inkscape:version="0.48.4 r9939"
   width="744.09448"
   height="1052.3622"
   xml:space="preserve"
   sodipodi:docname="target_arm_red.svg"><metadata
     id="metadata3764"><rdf:RDF><cc:Work
         rdf:about=""><dc:format>image/svg+xml</dc:format><dc:type
           rdf:resource="http://purl.org/dc/dcmitype/StillImage" /><dc:title /></cc:Work></rdf:RDF></metadata><defs
     id="defs3762" /><sodipodi:namedview
     pagecolor="#ffffff"
     bordercolor="#666666"
     borderopacity="1"
     objecttolerance="10"
     gridtolerance="10"
     guidetolerance="10"
     inkscape:pageopacity="0"
     inkscape:pageshadow="2"
     inkscape:window-width="1855"
     inkscape:window-height="1176"
     id="namedview3760"
     showgrid="true"
     inkscape:zoom="1.3202797"
     inkscape:cx="479.54104"
     inkscape:cy="744.8476"
     inkscape:window-x="65"
     inkscape:window-y="24"
     inkscape:window-maximized="1"
     inkscape:current-layer="g3768"><inkscape:grid
       type="xygrid"
       id="grid4288"
       empspacing="5"
       visible="true"
       enabled="true"
       snapvisiblegridlinesonly="true"
       units="cm"
       spacingx="0.25cm"
       spacingy="0.25cm" /></sodipodi:namedview><g
     id="g3766"
     inkscape:groupmode="layer"
     inkscape:label="ink_ext_XXXXXX"
     transform="matrix(1.25,0,0,-1.25,0,1052.3622)"><g
       id="g3768"
       transform="scale(0.1,0.1)"><path
         d="m 1347.4257,7440.2773 c 0,-156.561 -126.918,-283.472 -283.48,-283.472 -156.55903,0 -283.48072,126.911 -283.48072,283.472 0,156.53 126.92169,283.44 283.48072,283.44 156.562,0 283.48,-126.91 283.48,-283.44 z"
         style="fill:#ff0000;fill-opacity:1;fill-rule:nonzero;stroke:none"
         id="path3770"
         inkscape:connector-curvature="0" /><path
         d="m 2056.0567,7440.2773 c 0,-156.561 -126.92,-283.472 -283.44,-283.472 -156.562,0 -283.48,126.911 -283.48,283.472 0,156.53 126.918,283.44 283.48,283.44 156.52,0 283.44,-126.91 283.44,-283.44 z"
         style="fill:#000000;fill-opacity:1;fill-rule:nonzero;stroke:none"
         id="path3772"
         inkscape:connector-curvature="0" /><path
         d="m 1347.4257,6731.6063 c 0,-156.558 -126.918,-283.4685 -283.48,-283.4685 -156.55903,0 -283.48072,126.9105 -283.48072,283.4685 0,156.571 126.92169,283.481 283.48072,283.481 156.562,0 283.48,-126.91 283.48,-283.481 z"
         style="fill:#000000;fill-opacity:1;fill-rule:nonzero;stroke:none"
         id="path3774"
         inkscape:connector-curvature="0" /><path
         d="m 2056.0567,6731.6063 c 0,-156.558 -126.92,-283.4685 -283.44,-283.4685 -156.562,0 -283.48,126.9105 -283.48,283.4685 0,156.571 126.918,283.481 283.48,283.481 156.52,0 283.44,-126.91 283.44,-283.481 z"
         style="fill:#000000;fill-opacity:1;fill-rule:nonzero;stroke:none"
         id="path3776"
         inkscape:connector-curvature="0" /><path
         d="m 710.42594,6378.0987 1415.69996,0 0,1415.7 -1415.69996,0 0,-1415.7 z"
         style="fill:none;stroke:#000000;stroke-width:1.60767996;stroke-linecap:butt;stroke-linejoin:miter;stroke-miterlimit:4;stroke-opacity:1;stroke-dasharray:none"
         id="path3778"
         inkscape:connector-curvature="0" /><path
         d="m 3116.1892,7441.8801 c 0,-156.561 -126.918,-283.472 -283.48,-283.472 -156.559,0 -283.4807,126.911 -283.4807,283.472 0,156.53 126.9217,283.44 283.4807,283.44 156.562,0 283.48,-126.91 283.48,-283.44 z"
         style="fill:#ff0000;fill-opacity:1;fill-rule:nonzero;stroke:none"
         id="path3770-9"
         inkscape:connector-curvature="0" /><path
         d="m 3824.8202,7441.8801 c 0,-156.561 -126.92,-283.472 -283.44,-283.472 -156.562,0 -283.48,126.911 -283.48,283.472 0,156.53 126.918,283.44 283.48,283.44 156.52,0 283.44,-126.91 283.44,-283.44 z"
         style="fill:#000000;fill-opacity:1;fill-rule:nonzero;stroke:none"
         id="path3772-2"
         inkscape:connector-curvature="0" /><path
         d="m 3116.1892,6733.2091 c 0,-156.558 -126.918,-283.4685 -283.48,-283.4685 -156.559,0 -283.4807,126.9105 -283.4807,283.4685 0,156.571 126.9217,283.481 283.4807,283.481 156.562,0 283.48,-126.91 283.48,-283.481 z"
         style="fill:#000000;fill-opacity:1;fill-rule:nonzero;stroke:none"
         id="path3774-6"
         inkscape:connector-curvature="0" /><path
         d="m 3824.8202,6733.2091 c 0,-156.558 -126.92,-283.4685 -283.44,-283.4685 -156.562,0 -283.48,126.9105 -283.48,283.4685 0,156.571 126.918,283.481 283.48,283.481 156.52,0 283.44,-126.91 283.44,-283.481 z"
         style="fill:#000000;fill-opacity:1;fill-rule:nonzero;stroke:none"
         id="path3776-8"
         inkscape:connector-curvature="0" /><path
         d="m 2479.1895,6379.7015 1415.6999,0 0,1415.7 -1415.6999,0 0,-1415.7 z"
         style="fill:none;stroke:#000000;stroke-width:1.60767996;stroke-linecap:butt;stroke-linejoin:miter;stroke-miterlimit:4;stroke-opacity:1;stroke-dasharray:none"
         id="path3778-0"
         inkscape:connector-curvature="0" /></g></g></svg>