<?xml version="1.0" encoding="UTF-8" standalone="no"?>
<!-- Created with Inkscape (http://www.inkscape.org/) -->

<svg
   xmlns:dc="http://purl.org/dc/elements/1.1/"
   xmlns:cc="http://creativecommons.org/ns#"
   xmlns:rdf="http://www.w3.org/1999/02/22-rdf-syntax-ns#"
   xmlns:svg="http://www.w3.org/2000/svg"
   xmlns="http://www.w3.org/2000/svg"
   xmlns:sodipodi="http://sodipodi.sourceforge.net/DTD/sodipodi-0.dtd"
   xmlns:inkscape="http://www.inkscape.org/namespaces/inkscape"
   id="svg3758"
   version="1.1"
   inkscape:version="0.91 r"
   width="744.09448"
   height="1052.3622"
   xml:space="preserve"
   sodipodi:docname="target_4cm.svg"><metadata
     id="metadata3764"><rdf:RDF><cc:Work
         rdf:about=""><dc:format>image/svg+xml</dc:format><dc:type
           rdf:resource="http://purl.org/dc/dcmitype/StillImage" /><dc:title /></cc:Work></rdf:RDF></metadata><defs
     id="defs3762" /><sodipodi:namedview
     pagecolor="#ffffff"
     bordercolor="#666666"
     borderopacity="1"
     objecttolerance="10"
     gridtolerance="10"
     guidetolerance="10"
     inkscape:pageopacity="0"
     inkscape:pageshadow="2"
     inkscape:window-width="1855"
     inkscape:window-height="1176"
     id="namedview3760"
     showgrid="true"
     inkscape:zoom="1"
     inkscape:cx="343.06213"
     inkscape:cy="382.91052"
     inkscape:window-x="65"
     inkscape:window-y="24"
     inkscape:window-maximized="1"
     inkscape:current-layer="g3768"
     inkscape:snap-object-midpoints="true"
     inkscape:snap-center="true"
     inkscape:snap-page="false"><inkscape:grid
       type="xygrid"
       id="grid4288"
       empspacing="5"
       visible="true"
       enabled="true"
       snapvisiblegridlinesonly="true"
       units="cm"
       spacingx="3.5433071"
       spacingy="3.5433071" /></sodipodi:namedview><g
     id="g3766"
     inkscape:groupmode="layer"
     inkscape:label="ink_ext_XXXXXX"
     transform="matrix(1.25,0,0,-1.25,0,1052.3622)"><g
       id="g3768"
       transform="scale(0.1,0.1)"><path
         d="m 1924.5916,6949.9219 c 0,-282.922 -229.3539,-512.2632 -512.2777,-512.2632 -282.9183,0 -512.27894,229.3412 -512.27894,512.2632 0,282.8658 229.36064,512.2053 512.27894,512.2053 282.9238,0 512.2777,-229.3395 512.2777,-512.2053 z"
         style="fill:#00ffff;fill-opacity:1;fill-rule:nonzero;stroke:none"
         id="path3770"
         inkscape:connector-curvature="0" /><path
         d="m 3205.161,6949.9219 c 0,-282.922 -229.3576,-512.2632 -512.2055,-512.2632 -282.9236,0 -512.2775,229.3412 -512.2775,512.2632 0,282.8658 229.3539,512.2053 512.2775,512.2053 282.8479,0 512.2055,-229.3395 512.2055,-512.2053 z"
         style="fill:#000000;fill-opacity:1;fill-rule:nonzero;stroke:none"
         id="path3772"
         inkscape:connector-curvature="0" /><path
         d="m 1924.5916,5669.2802 c 0,-282.9164 -229.3539,-512.2569 -512.2777,-512.2569 -282.9183,0 -512.27894,229.3405 -512.27894,512.2569 0,282.9399 229.36064,512.2795 512.27894,512.2795 282.9238,0 512.2777,-229.3396 512.2777,-512.2795 z"
         style="fill:#000000;fill-opacity:1;fill-rule:nonzero;stroke:none"
         id="path3774"
         inkscape:connector-curvature="0" /><path
         d="m 3205.161,5669.2802 c 0,-282.9164 -229.3576,-512.2569 -512.2055,-512.2569 -282.9236,0 -512.2775,229.3405 -512.2775,512.2569 0,282.9399 229.3539,512.2795 512.2775,512.2795 282.8479,0 512.2055,-229.3396 512.2055,-512.2795 z"
         style="fill:#000000;fill-opacity:1;fill-rule:nonzero;stroke:none"
         id="path3776"
         inkscape:connector-curvature="0" /><path
         d="m 773.46718,5030.4554 2558.31612,0 0,2558.3162 -2558.31612,0 0,-2558.3162 z"
         style="fill:none;stroke:#000000;stroke-width:2.90524387;stroke-linecap:butt;stroke-linejoin:miter;stroke-miterlimit:4;stroke-dasharray:none;stroke-opacity:1"
         id="path3778"
         inkscape:connector-curvature="0" /><path
         d="m 3457.2491,3219.3828 c 0,-240.4499 -194.9233,-435.3625 -435.3749,-435.3625 -240.4468,0 -435.376,194.9126 -435.376,435.3625 0,240.4023 194.9292,435.3135 435.376,435.3135 240.4516,0 435.3749,-194.9112 435.3749,-435.3135 z"
         style="fill:#00ffff;fill-opacity:1;fill-rule:nonzero;stroke:none"
         id="path3770-8"
         inkscape:connector-curvature="0" /><path
         d="m 4545.5805,3219.3828 c 0,-240.4499 -194.9267,-435.3625 -435.3137,-435.3625 -240.4513,0 -435.3748,194.9126 -435.3748,435.3625 0,240.4023 194.9235,435.3135 435.3748,435.3135 240.387,0 435.3137,-194.9112 435.3137,-435.3135 z"
         style="fill:#000000;fill-opacity:1;fill-rule:nonzero;stroke:none"
         id="path3772-7"
         inkscape:connector-curvature="0" /><path
         d="m 3457.2491,2130.9902 c 0,-240.4452 -194.9233,-435.3574 -435.3749,-435.3574 -240.4468,0 -435.376,194.9122 -435.376,435.3574 0,240.4651 194.9292,435.3763 435.376,435.3763 240.4516,0 435.3749,-194.9112 435.3749,-435.3763 z"
         style="fill:#000000;fill-opacity:1;fill-rule:nonzero;stroke:none"
         id="path3774-8"
         inkscape:connector-curvature="0" /><path
         d="m 4545.5805,2130.9902 c 0,-240.4452 -194.9267,-435.3574 -435.3137,-435.3574 -240.4513,0 -435.3748,194.9122 -435.3748,435.3574 0,240.4651 194.9235,435.3763 435.3748,435.3763 240.387,0 435.3137,-194.9112 435.3137,-435.3763 z"
         style="fill:#000000;fill-opacity:1;fill-rule:nonzero;stroke:none"
         id="path3776-6"
         inkscape:connector-curvature="0" /><path
         d="m 2478.9307,1588.0653 2174.2636,0 0,2174.2636 -2174.2636,0 0,-2174.2636 z"
         style="fill:none;stroke:#000000;stroke-width:2.46911097;stroke-linecap:butt;stroke-linejoin:miter;stroke-miterlimit:4;stroke-dasharray:none;stroke-opacity:1"
         id="path3778-0"
         inkscape:connector-curvature="0" /></g></g></svg>