<?xml version="1.0" encoding="UTF-8" standalone="no"?>
<!-- Created with Inkscape (http://www.inkscape.org/) -->

<svg
   xmlns:dc="http://purl.org/dc/elements/1.1/"
   xmlns:cc="http://creativecommons.org/ns#"
   xmlns:rdf="http://www.w3.org/1999/02/22-rdf-syntax-ns#"
   xmlns:svg="http://www.w3.org/2000/svg"
   xmlns="http://www.w3.org/2000/svg"
   xmlns:sodipodi="http://sodipodi.sourceforge.net/DTD/sodipodi-0.dtd"
   xmlns:inkscape="http://www.inkscape.org/namespaces/inkscape"
   id="svg3758"
   version="1.1"
   inkscape:version="0.91 r"
   width="744.09448"
   height="1052.3622"
   xml:space="preserve"
   sodipodi:docname="target_arm_red.svg"><metadata
     id="metadata3764"><rdf:RDF><cc:Work
         rdf:about=""><dc:format>image/svg+xml</dc:format><dc:type
           rdf:resource="http://purl.org/dc/dcmitype/StillImage" /><dc:title /></cc:Work></rdf:RDF></metadata><defs
     id="defs3762" /><sodipodi:namedview
     pagecolor="#ffffff"
     bordercolor="#666666"
     borderopacity="1"
     objecttolerance="10"
     gridtolerance="10"
     guidetolerance="10"
     inkscape:pageopacity="0"
     inkscape:pageshadow="2"
     inkscape:window-width="1855"
     inkscape:window-height="1176"
     id="namedview3760"
     showgrid="true"
     inkscape:zoom="0.70710678"
     inkscape:cx="-138.77959"
     inkscape:cy="554.16152"
     inkscape:window-x="65"
     inkscape:window-y="24"
     inkscape:window-maximized="1"
     inkscape:current-layer="g3768"
     inkscape:snap-object-midpoints="true"
     inkscape:snap-center="true"
     inkscape:snap-page="false"><inkscape:grid
       type="xygrid"
       id="grid4288"
       empspacing="5"
       visible="true"
       enabled="true"
       snapvisiblegridlinesonly="true"
       units="cm"
       spacingx="3.5433071"
       spacingy="3.5433071" /></sodipodi:namedview><g
     id="g3766"
     inkscape:groupmode="layer"
     inkscape:label="ink_ext_XXXXXX"
     transform="matrix(1.25,0,0,-1.25,0,1052.3622)"><g
       id="g3768"
       transform="scale(0.1,0.1)"><path
         d="m 1347.4257,7440.2773 c 0,-156.561 -126.918,-283.472 -283.48,-283.472 -156.55903,0 -283.48072,126.911 -283.48072,283.472 0,156.53 126.92169,283.44 283.48072,283.44 156.562,0 283.48,-126.91 283.48,-283.44 z"
         style="fill:#00ffff;fill-opacity:1;fill-rule:nonzero;stroke:none"
         id="path3770"
         inkscape:connector-curvature="0" /><path
         d="m 2056.0567,7440.2773 c 0,-156.561 -126.92,-283.472 -283.44,-283.472 -156.562,0 -283.48,126.911 -283.48,283.472 0,156.53 126.918,283.44 283.48,283.44 156.52,0 283.44,-126.91 283.44,-283.44 z"
         style="fill:#000000;fill-opacity:1;fill-rule:nonzero;stroke:none"
         id="path3772"
         inkscape:connector-curvature="0" /><path
         d="m 1347.4257,6731.6063 c 0,-156.558 -126.918,-283.4685 -283.48,-283.4685 -156.55903,0 -283.48072,126.9105 -283.48072,283.4685 0,156.571 126.92169,283.481 283.48072,283.481 156.562,0 283.48,-126.91 283.48,-283.481 z"
         style="fill:#000000;fill-opacity:1;fill-rule:nonzero;stroke:none"
         id="path3774"
         inkscape:connector-curvature="0" /><path
         d="m 2056.0567,6731.6063 c 0,-156.558 -126.92,-283.4685 -283.44,-283.4685 -156.562,0 -283.48,126.9105 -283.48,283.4685 0,156.571 126.918,283.481 283.48,283.481 156.52,0 283.44,-126.91 283.44,-283.481 z"
         style="fill:#000000;fill-opacity:1;fill-rule:nonzero;stroke:none"
         id="path3776"
         inkscape:connector-curvature="0" /><path
         d="m 710.42594,6378.0987 1415.69996,0 0,1415.7 -1415.69996,0 0,-1415.7 z"
         style="fill:none;stroke:#000000;stroke-width:1.60767996;stroke-linecap:butt;stroke-linejoin:miter;stroke-miterlimit:4;stroke-opacity:1;stroke-dasharray:none"
         id="path3778"
         inkscape:connector-curvature="0" /><path
         d="m 3116.1892,7441.8801 c 0,-156.561 -126.918,-283.472 -283.48,-283.472 -156.559,0 -283.4807,126.911 -283.4807,283.472 0,156.53 126.9217,283.44 283.4807,283.44 156.562,0 283.48,-126.91 283.48,-283.44 z"
         style="fill:#ff00cc;fill-opacity:1;fill-rule:nonzero;stroke:none"
         id="path3770-9"
         inkscape:connector-curvature="0" /><path
         d="m 3824.8202,7441.8801 c 0,-156.561 -126.92,-283.472 -283.44,-283.472 -156.562,0 -283.48,126.911 -283.48,283.472 0,156.53 126.918,283.44 283.48,283.44 156.52,0 283.44,-126.91 283.44,-283.44 z"
         style="fill:#000000;fill-opacity:1;fill-rule:nonzero;stroke:none"
         id="path3772-2"
         inkscape:connector-curvature="0" /><path
         d="m 3116.1892,6733.2091 c 0,-156.558 -126.918,-283.4685 -283.48,-283.4685 -156.559,0 -283.4807,126.9105 -283.4807,283.4685 0,156.571 126.9217,283.481 283.4807,283.481 156.562,0 283.48,-126.91 283.48,-283.481 z"
         style="fill:#000000;fill-opacity:1;fill-rule:nonzero;stroke:none"
         id="path3774-6"
         inkscape:connector-curvature="0" /><path
         d="m 3824.8202,6733.2091 c 0,-156.558 -126.92,-283.4685 -283.44,-283.4685 -156.562,0 -283.48,126.9105 -283.48,283.4685 0,156.571 126.918,283.481 283.48,283.481 156.52,0 283.44,-126.91 283.44,-283.481 z"
         style="fill:#000000;fill-opacity:1;fill-rule:nonzero;stroke:none"
         id="path3776-8"
         inkscape:connector-curvature="0" /><path
         d="m 2479.1895,6379.7015 1415.6999,0 0,1415.7 -1415.6999,0 0,-1415.7 z"
         style="fill:none;stroke:#000000;stroke-width:1.60767996;stroke-linecap:butt;stroke-linejoin:miter;stroke-miterlimit:4;stroke-opacity:1;stroke-dasharray:none"
         id="path3778-0"
         inkscape:connector-curvature="0" /><path
         d="m 4790.484,5811.0381 c 0,-140.233 -113.4866,-253.9084 -253.48,-253.9084 -139.9908,0 -253.4807,113.6754 -253.4807,253.9084 0,140.2053 113.4899,253.8797 253.4807,253.8797 139.9934,0 253.48,-113.6744 253.48,-253.8797 z"
         style="fill:#ff8900;fill-opacity:1;fill-rule:nonzero;stroke:none"
         id="path3770-9-6"
         inkscape:connector-curvature="0" /><path
         d="m 5386.6228,5811.215 c 0,-140.8586 -114.4164,-255.0409 -255.5167,-255.0409 -141.138,0 -255.5526,114.1823 -255.5526,255.0409 0,140.8306 114.4146,255.0121 255.5526,255.0121 141.1003,0 255.5167,-114.1815 255.5167,-255.0121 z"
         style="fill:#000000;fill-opacity:1;fill-rule:nonzero;stroke:none"
         id="path3772-2-2"
         inkscape:connector-curvature="0" /><path
         d="m 4790.609,5215.6037 c 0,-141.0114 -114.2211,-255.3193 -255.1206,-255.3193 -140.8969,0 -255.1214,114.3079 -255.1214,255.3193 0,141.023 114.2245,255.3305 255.1214,255.3305 140.8995,0 255.1206,-114.3075 255.1206,-255.3305 z"
         style="fill:#000000;fill-opacity:1;fill-rule:nonzero;stroke:none"
         id="path3774-6-6"
         inkscape:connector-curvature="0" /><path
         d="m 5385.73,5215.7426 c 0,-140.8857 -114.1445,-255.0918 -254.9096,-255.0918 -140.8028,0 -254.9455,114.2061 -254.9455,255.0918 0,140.8972 114.1427,255.1029 254.9455,255.1029 140.7651,0 254.9096,-114.2057 254.9096,-255.1029 z"
         style="fill:#000000;fill-opacity:1;fill-rule:nonzero;stroke:none"
         id="path3776-8-1"
         inkscape:connector-curvature="0" /></g><path
       d="m 75.388409,392.74902 98.867981,0 0,98.91144 -99.120113,0 0.252132,0 z"
       style="fill:none;stroke:#000000;stroke-width:0.11230057;stroke-linecap:butt;stroke-linejoin:miter;stroke-miterlimit:4;stroke-dasharray:none;stroke-opacity:1"
       id="path3778-03-1"
       inkscape:connector-curvature="0"
       sodipodi:nodetypes="cccccc" /><ellipse
       ry="19.840954"
       rx="19.842653"
       transform="scale(1,-1)"
       cy="-419.52759"
       cx="99.212601"
       id="use3485"
       style="fill:#000000;fill-opacity:1" /><ellipse
       ry="19.840954"
       rx="19.842653"
       transform="scale(1,-1)"
       cy="-467.71655"
       cx="99.212601"
       id="use3487"
       style="fill:#009000;fill-opacity:1" /><ellipse
       ry="19.840954"
       rx="19.842653"
       transform="scale(1,-1)"
       cy="-419.52759"
       cx="147.40158"
       id="use3489"
       style="fill:#000000;fill-opacity:1" /><ellipse
       ry="19.840954"
       rx="19.842653"
       transform="scale(1,-1)"
       cy="-467.71655"
       cx="147.40158"
       id="use3491"
       style="fill:#000000;fill-opacity:1" /><ellipse
       inkscape:tile-y0="368.7994"
       inkscape:tile-x0="326.27737"
       transform="scale(1,-1)"
       style="fill:#008000;fill-opacity:1"
       id="use4244"
       cx="283.46457"
       cy="-581.10236"
       rx="22.661427"
       ry="22.668156"
       inkscape:transform-center-y="-28.346429" /><ellipse
       inkscape:tile-y0="368.7994"
       inkscape:tile-x0="326.27737"
       style="fill:#000000;fill-opacity:1"
       id="use4244-4"
       cx="334.48193"
       cy="-581.09991"
       rx="22.661427"
       ry="22.668156"
       transform="scale(1,-1)" /><ellipse
       inkscape:tile-y0="368.7994"
       inkscape:tile-x0="326.27737"
       style="fill:#000000;fill-opacity:1"
       id="use4244-0"
       cx="334.48193"
       cy="-530.07629"
       rx="22.661427"
       ry="22.668156"
       transform="scale(1,-1)" /><ellipse
       inkscape:tile-y0="368.7994"
       inkscape:tile-x0="326.27737"
       style="fill:#000000;fill-opacity:1"
       id="use4244-6"
       cx="283.45831"
       cy="-530.07629"
       rx="22.661427"
       ry="22.668156"
       transform="scale(1,-1)" /><path
       d="m 252.47663,498.95372 113.22393,0 0,113.2737 -113.51267,0 0.28874,0 z"
       style="fill:none;stroke:#000000;stroke-width:0.12860605;stroke-linecap:butt;stroke-linejoin:miter;stroke-miterlimit:4;stroke-dasharray:none;stroke-opacity:1"
       id="path3778-03-1-1"
       inkscape:connector-curvature="0"
       sodipodi:nodetypes="cccccc" /><path
       d="m 422.72051,490.53684 118.57516,0 0,118.76887 -118.87755,0 0.30239,0 z"
       style="fill:none;stroke:#000000;stroke-width:0.13476463;stroke-linecap:butt;stroke-linejoin:miter;stroke-miterlimit:4;stroke-dasharray:none;stroke-opacity:1"
       id="path3778-03-1-1-1"
       inkscape:connector-curvature="0"
       sodipodi:nodetypes="cccccc" /><text
       xml:space="preserve"
       style="font-style:normal;font-weight:normal;font-size:20px;line-height:125%;font-family:Sans;letter-spacing:0px;word-spacing:0px;fill:#000000;fill-opacity:1;stroke:none;stroke-width:1px;stroke-linecap:butt;stroke-linejoin:miter;stroke-opacity:1;"
       x="473.38583"
       y="-470.55121"
       id="text4347"
       sodipodi:linespacing="125%"
       transform="scale(1,-1)"><tspan
         sodipodi:role="line"
         id="tspan4349"
         x="473.38583"
         y="-470.55121">2.10</tspan></text>
<text
       xml:space="preserve"
       style="font-style:normal;font-weight:normal;font-size:20px;line-height:125%;font-family:Sans;letter-spacing:0px;word-spacing:0px;fill:#000000;fill-opacity:1;stroke:none;stroke-width:1px;stroke-linecap:butt;stroke-linejoin:miter;stroke-opacity:1"
       x="260.78741"
       y="-476.31973"
       id="text4347-1"
       sodipodi:linespacing="125%"
       transform="scale(1,-1)"><tspan
         sodipodi:role="line"
         id="tspan4349-6"
         x="260.78741"
         y="-476.31973">1.80</tspan></text>
<text
       xml:space="preserve"
       style="font-style:normal;font-weight:normal;font-size:20px;line-height:125%;font-family:Sans;letter-spacing:0px;word-spacing:0px;fill:#000000;fill-opacity:1;stroke:none;stroke-width:1px;stroke-linecap:butt;stroke-linejoin:miter;stroke-opacity:1"
       x="104.84422"
       y="-375.39691"
       id="text4347-1-3"
       sodipodi:linespacing="125%"
       transform="scale(1,-1)"><tspan
         sodipodi:role="line"
         id="tspan4349-6-3"
         x="104.84422"
         y="-375.39691">1.70</tspan></text>
</g></svg>