<?xml version="1.0" encoding="UTF-8"?>
<svg version="1.1" baseProfile="tiny" xmlns="http://www.w3.org/2000/svg" width="882" height="882">
<rect shape-rendering="optimizeSpeed"  x="0" y="0" width="882" height="882" fill="white" />
<rect shape-rendering="optimizeSpeed"  x="0" y="0" width="42" height="42" fill="black" />
<rect shape-rendering="optimizeSpeed"  x="42" y="0" width="42" height="42" fill="black" />
<rect shape-rendering="optimizeSpeed"  x="84" y="0" width="42" height="42" fill="black" />
<rect shape-rendering="optimizeSpeed"  x="126" y="0" width="42" height="42" fill="black" />
<rect shape-rendering="optimizeSpeed"  x="168" y="0" width="42" height="42" fill="black" />
<rect shape-rendering="optimizeSpeed"  x="210" y="0" width="42" height="42" fill="black" />
<rect shape-rendering="optimizeSpeed"  x="252" y="0" width="42" height="42" fill="black" />
<rect shape-rendering="optimizeSpeed"  x="378" y="0" width="42" height="42" fill="black" />
<rect shape-rendering="optimizeSpeed"  x="504" y="0" width="42" height="42" fill="black" />
<rect shape-rendering="optimizeSpeed"  x="588" y="0" width="42" height="42" fill="black" />
<rect shape-rendering="optimizeSpeed"  x="630" y="0" width="42" height="42" fill="black" />
<rect shape-rendering="optimizeSpeed"  x="672" y="0" width="42" height="42" fill="black" />
<rect shape-rendering="optimizeSpeed"  x="714" y="0" width="42" height="42" fill="black" />
<rect shape-rendering="optimizeSpeed"  x="756" y="0" width="42" height="42" fill="black" />
<rect shape-rendering="optimizeSpeed"  x="798" y="0" width="42" height="42" fill="black" />
<rect shape-rendering="optimizeSpeed"  x="840" y="0" width="42" height="42" fill="black" />
<rect shape-rendering="optimizeSpeed"  x="0" y="42" width="42" height="42" fill="black" />
<rect shape-rendering="optimizeSpeed"  x="252" y="42" width="42" height="42" fill="black" />
<rect shape-rendering="optimizeSpeed"  x="378" y="42" width="42" height="42" fill="black" />
<rect shape-rendering="optimizeSpeed"  x="420" y="42" width="42" height="42" fill="black" />
<rect shape-rendering="optimizeSpeed"  x="462" y="42" width="42" height="42" fill="black" />
<rect shape-rendering="optimizeSpeed"  x="588" y="42" width="42" height="42" fill="black" />
<rect shape-rendering="optimizeSpeed"  x="840" y="42" width="42" height="42" fill="black" />
<rect shape-rendering="optimizeSpeed"  x="0" y="84" width="42" height="42" fill="black" />
<rect shape-rendering="optimizeSpeed"  x="84" y="84" width="42" height="42" fill="black" />
<rect shape-rendering="optimizeSpeed"  x="126" y="84" width="42" height="42" fill="black" />
<rect shape-rendering="optimizeSpeed"  x="168" y="84" width="42" height="42" fill="black" />
<rect shape-rendering="optimizeSpeed"  x="252" y="84" width="42" height="42" fill="black" />
<rect shape-rendering="optimizeSpeed"  x="336" y="84" width="42" height="42" fill="black" />
<rect shape-rendering="optimizeSpeed"  x="378" y="84" width="42" height="42" fill="black" />
<rect shape-rendering="optimizeSpeed"  x="462" y="84" width="42" height="42" fill="black" />
<rect shape-rendering="optimizeSpeed"  x="504" y="84" width="42" height="42" fill="black" />
<rect shape-rendering="optimizeSpeed"  x="588" y="84" width="42" height="42" fill="black" />
<rect shape-rendering="optimizeSpeed"  x="672" y="84" width="42" height="42" fill="black" />
<rect shape-rendering="optimizeSpeed"  x="714" y="84" width="42" height="42" fill="black" />
<rect shape-rendering="optimizeSpeed"  x="756" y="84" width="42" height="42" fill="black" />
<rect shape-rendering="optimizeSpeed"  x="840" y="84" width="42" height="42" fill="black" />
<rect shape-rendering="optimizeSpeed"  x="0" y="126" width="42" height="42" fill="black" />
<rect shape-rendering="optimizeSpeed"  x="84" y="126" width="42" height="42" fill="black" />
<rect shape-rendering="optimizeSpeed"  x="126" y="126" width="42" height="42" fill="black" />
<rect shape-rendering="optimizeSpeed"  x="168" y="126" width="42" height="42" fill="black" />
<rect shape-rendering="optimizeSpeed"  x="252" y="126" width="42" height="42" fill="black" />
<rect shape-rendering="optimizeSpeed"  x="378" y="126" width="42" height="42" fill="black" />
<rect shape-rendering="optimizeSpeed"  x="504" y="126" width="42" height="42" fill="black" />
<rect shape-rendering="optimizeSpeed"  x="588" y="126" width="42" height="42" fill="black" />
<rect shape-rendering="optimizeSpeed"  x="672" y="126" width="42" height="42" fill="black" />
<rect shape-rendering="optimizeSpeed"  x="714" y="126" width="42" height="42" fill="black" />
<rect shape-rendering="optimizeSpeed"  x="756" y="126" width="42" height="42" fill="black" />
<rect shape-rendering="optimizeSpeed"  x="840" y="126" width="42" height="42" fill="black" />
<rect shape-rendering="optimizeSpeed"  x="0" y="168" width="42" height="42" fill="black" />
<rect shape-rendering="optimizeSpeed"  x="84" y="168" width="42" height="42" fill="black" />
<rect shape-rendering="optimizeSpeed"  x="126" y="168" width="42" height="42" fill="black" />
<rect shape-rendering="optimizeSpeed"  x="168" y="168" width="42" height="42" fill="black" />
<rect shape-rendering="optimizeSpeed"  x="252" y="168" width="42" height="42" fill="black" />
<rect shape-rendering="optimizeSpeed"  x="420" y="168" width="42" height="42" fill="black" />
<rect shape-rendering="optimizeSpeed"  x="588" y="168" width="42" height="42" fill="black" />
<rect shape-rendering="optimizeSpeed"  x="672" y="168" width="42" height="42" fill="black" />
<rect shape-rendering="optimizeSpeed"  x="714" y="168" width="42" height="42" fill="black" />
<rect shape-rendering="optimizeSpeed"  x="756" y="168" width="42" height="42" fill="black" />
<rect shape-rendering="optimizeSpeed"  x="840" y="168" width="42" height="42" fill="black" />
<rect shape-rendering="optimizeSpeed"  x="0" y="210" width="42" height="42" fill="black" />
<rect shape-rendering="optimizeSpeed"  x="252" y="210" width="42" height="42" fill="black" />
<rect shape-rendering="optimizeSpeed"  x="588" y="210" width="42" height="42" fill="black" />
<rect shape-rendering="optimizeSpeed"  x="840" y="210" width="42" height="42" fill="black" />
<rect shape-rendering="optimizeSpeed"  x="0" y="252" width="42" height="42" fill="black" />
<rect shape-rendering="optimizeSpeed"  x="42" y="252" width="42" height="42" fill="black" />
<rect shape-rendering="optimizeSpeed"  x="84" y="252" width="42" height="42" fill="black" />
<rect shape-rendering="optimizeSpeed"  x="126" y="252" width="42" height="42" fill="black" />
<rect shape-rendering="optimizeSpeed"  x="168" y="252" width="42" height="42" fill="black" />
<rect shape-rendering="optimizeSpeed"  x="210" y="252" width="42" height="42" fill="black" />
<rect shape-rendering="optimizeSpeed"  x="252" y="252" width="42" height="42" fill="black" />
<rect shape-rendering="optimizeSpeed"  x="336" y="252" width="42" height="42" fill="black" />
<rect shape-rendering="optimizeSpeed"  x="420" y="252" width="42" height="42" fill="black" />
<rect shape-rendering="optimizeSpeed"  x="504" y="252" width="42" height="42" fill="black" />
<rect shape-rendering="optimizeSpeed"  x="588" y="252" width="42" height="42" fill="black" />
<rect shape-rendering="optimizeSpeed"  x="630" y="252" width="42" height="42" fill="black" />
<rect shape-rendering="optimizeSpeed"  x="672" y="252" width="42" height="42" fill="black" />
<rect shape-rendering="optimizeSpeed"  x="714" y="252" width="42" height="42" fill="black" />
<rect shape-rendering="optimizeSpeed"  x="756" y="252" width="42" height="42" fill="black" />
<rect shape-rendering="optimizeSpeed"  x="798" y="252" width="42" height="42" fill="black" />
<rect shape-rendering="optimizeSpeed"  x="840" y="252" width="42" height="42" fill="black" />
<rect shape-rendering="optimizeSpeed"  x="336" y="294" width="42" height="42" fill="black" />
<rect shape-rendering="optimizeSpeed"  x="378" y="294" width="42" height="42" fill="black" />
<rect shape-rendering="optimizeSpeed"  x="462" y="294" width="42" height="42" fill="black" />
<rect shape-rendering="optimizeSpeed"  x="504" y="294" width="42" height="42" fill="black" />
<rect shape-rendering="optimizeSpeed"  x="0" y="336" width="42" height="42" fill="black" />
<rect shape-rendering="optimizeSpeed"  x="42" y="336" width="42" height="42" fill="black" />
<rect shape-rendering="optimizeSpeed"  x="84" y="336" width="42" height="42" fill="black" />
<rect shape-rendering="optimizeSpeed"  x="168" y="336" width="42" height="42" fill="black" />
<rect shape-rendering="optimizeSpeed"  x="210" y="336" width="42" height="42" fill="black" />
<rect shape-rendering="optimizeSpeed"  x="252" y="336" width="42" height="42" fill="black" />
<rect shape-rendering="optimizeSpeed"  x="294" y="336" width="42" height="42" fill="black" />
<rect shape-rendering="optimizeSpeed"  x="336" y="336" width="42" height="42" fill="black" />
<rect shape-rendering="optimizeSpeed"  x="378" y="336" width="42" height="42" fill="black" />
<rect shape-rendering="optimizeSpeed"  x="420" y="336" width="42" height="42" fill="black" />
<rect shape-rendering="optimizeSpeed"  x="504" y="336" width="42" height="42" fill="black" />
<rect shape-rendering="optimizeSpeed"  x="546" y="336" width="42" height="42" fill="black" />
<rect shape-rendering="optimizeSpeed"  x="588" y="336" width="42" height="42" fill="black" />
<rect shape-rendering="optimizeSpeed"  x="756" y="336" width="42" height="42" fill="black" />
<rect shape-rendering="optimizeSpeed"  x="210" y="378" width="42" height="42" fill="black" />
<rect shape-rendering="optimizeSpeed"  x="294" y="378" width="42" height="42" fill="black" />
<rect shape-rendering="optimizeSpeed"  x="420" y="378" width="42" height="42" fill="black" />
<rect shape-rendering="optimizeSpeed"  x="504" y="378" width="42" height="42" fill="black" />
<rect shape-rendering="optimizeSpeed"  x="546" y="378" width="42" height="42" fill="black" />
<rect shape-rendering="optimizeSpeed"  x="588" y="378" width="42" height="42" fill="black" />
<rect shape-rendering="optimizeSpeed"  x="630" y="378" width="42" height="42" fill="black" />
<rect shape-rendering="optimizeSpeed"  x="672" y="378" width="42" height="42" fill="black" />
<rect shape-rendering="optimizeSpeed"  x="756" y="378" width="42" height="42" fill="black" />
<rect shape-rendering="optimizeSpeed"  x="798" y="378" width="42" height="42" fill="black" />
<rect shape-rendering="optimizeSpeed"  x="840" y="378" width="42" height="42" fill="black" />
<rect shape-rendering="optimizeSpeed"  x="0" y="420" width="42" height="42" fill="black" />
<rect shape-rendering="optimizeSpeed"  x="84" y="420" width="42" height="42" fill="black" />
<rect shape-rendering="optimizeSpeed"  x="168" y="420" width="42" height="42" fill="black" />
<rect shape-rendering="optimizeSpeed"  x="210" y="420" width="42" height="42" fill="black" />
<rect shape-rendering="optimizeSpeed"  x="252" y="420" width="42" height="42" fill="black" />
<rect shape-rendering="optimizeSpeed"  x="420" y="420" width="42" height="42" fill="black" />
<rect shape-rendering="optimizeSpeed"  x="462" y="420" width="42" height="42" fill="black" />
<rect shape-rendering="optimizeSpeed"  x="504" y="420" width="42" height="42" fill="black" />
<rect shape-rendering="optimizeSpeed"  x="546" y="420" width="42" height="42" fill="black" />
<rect shape-rendering="optimizeSpeed"  x="588" y="420" width="42" height="42" fill="black" />
<rect shape-rendering="optimizeSpeed"  x="630" y="420" width="42" height="42" fill="black" />
<rect shape-rendering="optimizeSpeed"  x="672" y="420" width="42" height="42" fill="black" />
<rect shape-rendering="optimizeSpeed"  x="714" y="420" width="42" height="42" fill="black" />
<rect shape-rendering="optimizeSpeed"  x="798" y="420" width="42" height="42" fill="black" />
<rect shape-rendering="optimizeSpeed"  x="840" y="420" width="42" height="42" fill="black" />
<rect shape-rendering="optimizeSpeed"  x="0" y="462" width="42" height="42" fill="black" />
<rect shape-rendering="optimizeSpeed"  x="42" y="462" width="42" height="42" fill="black" />
<rect shape-rendering="optimizeSpeed"  x="126" y="462" width="42" height="42" fill="black" />
<rect shape-rendering="optimizeSpeed"  x="210" y="462" width="42" height="42" fill="black" />
<rect shape-rendering="optimizeSpeed"  x="378" y="462" width="42" height="42" fill="black" />
<rect shape-rendering="optimizeSpeed"  x="630" y="462" width="42" height="42" fill="black" />
<rect shape-rendering="optimizeSpeed"  x="672" y="462" width="42" height="42" fill="black" />
<rect shape-rendering="optimizeSpeed"  x="798" y="462" width="42" height="42" fill="black" />
<rect shape-rendering="optimizeSpeed"  x="840" y="462" width="42" height="42" fill="black" />
<rect shape-rendering="optimizeSpeed"  x="0" y="504" width="42" height="42" fill="black" />
<rect shape-rendering="optimizeSpeed"  x="84" y="504" width="42" height="42" fill="black" />
<rect shape-rendering="optimizeSpeed"  x="126" y="504" width="42" height="42" fill="black" />
<rect shape-rendering="optimizeSpeed"  x="168" y="504" width="42" height="42" fill="black" />
<rect shape-rendering="optimizeSpeed"  x="210" y="504" width="42" height="42" fill="black" />
<rect shape-rendering="optimizeSpeed"  x="252" y="504" width="42" height="42" fill="black" />
<rect shape-rendering="optimizeSpeed"  x="336" y="504" width="42" height="42" fill="black" />
<rect shape-rendering="optimizeSpeed"  x="378" y="504" width="42" height="42" fill="black" />
<rect shape-rendering="optimizeSpeed"  x="504" y="504" width="42" height="42" fill="black" />
<rect shape-rendering="optimizeSpeed"  x="672" y="504" width="42" height="42" fill="black" />
<rect shape-rendering="optimizeSpeed"  x="840" y="504" width="42" height="42" fill="black" />
<rect shape-rendering="optimizeSpeed"  x="336" y="546" width="42" height="42" fill="black" />
<rect shape-rendering="optimizeSpeed"  x="462" y="546" width="42" height="42" fill="black" />
<rect shape-rendering="optimizeSpeed"  x="504" y="546" width="42" height="42" fill="black" />
<rect shape-rendering="optimizeSpeed"  x="672" y="546" width="42" height="42" fill="black" />
<rect shape-rendering="optimizeSpeed"  x="756" y="546" width="42" height="42" fill="black" />
<rect shape-rendering="optimizeSpeed"  x="840" y="546" width="42" height="42" fill="black" />
<rect shape-rendering="optimizeSpeed"  x="0" y="588" width="42" height="42" fill="black" />
<rect shape-rendering="optimizeSpeed"  x="42" y="588" width="42" height="42" fill="black" />
<rect shape-rendering="optimizeSpeed"  x="84" y="588" width="42" height="42" fill="black" />
<rect shape-rendering="optimizeSpeed"  x="126" y="588" width="42" height="42" fill="black" />
<rect shape-rendering="optimizeSpeed"  x="168" y="588" width="42" height="42" fill="black" />
<rect shape-rendering="optimizeSpeed"  x="210" y="588" width="42" height="42" fill="black" />
<rect shape-rendering="optimizeSpeed"  x="252" y="588" width="42" height="42" fill="black" />
<rect shape-rendering="optimizeSpeed"  x="336" y="588" width="42" height="42" fill="black" />
<rect shape-rendering="optimizeSpeed"  x="462" y="588" width="42" height="42" fill="black" />
<rect shape-rendering="optimizeSpeed"  x="504" y="588" width="42" height="42" fill="black" />
<rect shape-rendering="optimizeSpeed"  x="546" y="588" width="42" height="42" fill="black" />
<rect shape-rendering="optimizeSpeed"  x="630" y="588" width="42" height="42" fill="black" />
<rect shape-rendering="optimizeSpeed"  x="672" y="588" width="42" height="42" fill="black" />
<rect shape-rendering="optimizeSpeed"  x="714" y="588" width="42" height="42" fill="black" />
<rect shape-rendering="optimizeSpeed"  x="756" y="588" width="42" height="42" fill="black" />
<rect shape-rendering="optimizeSpeed"  x="798" y="588" width="42" height="42" fill="black" />
<rect shape-rendering="optimizeSpeed"  x="840" y="588" width="42" height="42" fill="black" />
<rect shape-rendering="optimizeSpeed"  x="0" y="630" width="42" height="42" fill="black" />
<rect shape-rendering="optimizeSpeed"  x="252" y="630" width="42" height="42" fill="black" />
<rect shape-rendering="optimizeSpeed"  x="336" y="630" width="42" height="42" fill="black" />
<rect shape-rendering="optimizeSpeed"  x="504" y="630" width="42" height="42" fill="black" />
<rect shape-rendering="optimizeSpeed"  x="672" y="630" width="42" height="42" fill="black" />
<rect shape-rendering="optimizeSpeed"  x="840" y="630" width="42" height="42" fill="black" />
<rect shape-rendering="optimizeSpeed"  x="0" y="672" width="42" height="42" fill="black" />
<rect shape-rendering="optimizeSpeed"  x="84" y="672" width="42" height="42" fill="black" />
<rect shape-rendering="optimizeSpeed"  x="126" y="672" width="42" height="42" fill="black" />
<rect shape-rendering="optimizeSpeed"  x="168" y="672" width="42" height="42" fill="black" />
<rect shape-rendering="optimizeSpeed"  x="252" y="672" width="42" height="42" fill="black" />
<rect shape-rendering="optimizeSpeed"  x="336" y="672" width="42" height="42" fill="black" />
<rect shape-rendering="optimizeSpeed"  x="378" y="672" width="42" height="42" fill="black" />
<rect shape-rendering="optimizeSpeed"  x="462" y="672" width="42" height="42" fill="black" />
<rect shape-rendering="optimizeSpeed"  x="630" y="672" width="42" height="42" fill="black" />
<rect shape-rendering="optimizeSpeed"  x="798" y="672" width="42" height="42" fill="black" />
<rect shape-rendering="optimizeSpeed"  x="0" y="714" width="42" height="42" fill="black" />
<rect shape-rendering="optimizeSpeed"  x="84" y="714" width="42" height="42" fill="black" />
<rect shape-rendering="optimizeSpeed"  x="126" y="714" width="42" height="42" fill="black" />
<rect shape-rendering="optimizeSpeed"  x="168" y="714" width="42" height="42" fill="black" />
<rect shape-rendering="optimizeSpeed"  x="252" y="714" width="42" height="42" fill="black" />
<rect shape-rendering="optimizeSpeed"  x="378" y="714" width="42" height="42" fill="black" />
<rect shape-rendering="optimizeSpeed"  x="420" y="714" width="42" height="42" fill="black" />
<rect shape-rendering="optimizeSpeed"  x="546" y="714" width="42" height="42" fill="black" />
<rect shape-rendering="optimizeSpeed"  x="588" y="714" width="42" height="42" fill="black" />
<rect shape-rendering="optimizeSpeed"  x="798" y="714" width="42" height="42" fill="black" />
<rect shape-rendering="optimizeSpeed"  x="0" y="756" width="42" height="42" fill="black" />
<rect shape-rendering="optimizeSpeed"  x="84" y="756" width="42" height="42" fill="black" />
<rect shape-rendering="optimizeSpeed"  x="126" y="756" width="42" height="42" fill="black" />
<rect shape-rendering="optimizeSpeed"  x="168" y="756" width="42" height="42" fill="black" />
<rect shape-rendering="optimizeSpeed"  x="252" y="756" width="42" height="42" fill="black" />
<rect shape-rendering="optimizeSpeed"  x="336" y="756" width="42" height="42" fill="black" />
<rect shape-rendering="optimizeSpeed"  x="378" y="756" width="42" height="42" fill="black" />
<rect shape-rendering="optimizeSpeed"  x="420" y="756" width="42" height="42" fill="black" />
<rect shape-rendering="optimizeSpeed"  x="462" y="756" width="42" height="42" fill="black" />
<rect shape-rendering="optimizeSpeed"  x="504" y="756" width="42" height="42" fill="black" />
<rect shape-rendering="optimizeSpeed"  x="588" y="756" width="42" height="42" fill="black" />
<rect shape-rendering="optimizeSpeed"  x="630" y="756" width="42" height="42" fill="black" />
<rect shape-rendering="optimizeSpeed"  x="672" y="756" width="42" height="42" fill="black" />
<rect shape-rendering="optimizeSpeed"  x="714" y="756" width="42" height="42" fill="black" />
<rect shape-rendering="optimizeSpeed"  x="756" y="756" width="42" height="42" fill="black" />
<rect shape-rendering="optimizeSpeed"  x="840" y="756" width="42" height="42" fill="black" />
<rect shape-rendering="optimizeSpeed"  x="0" y="798" width="42" height="42" fill="black" />
<rect shape-rendering="optimizeSpeed"  x="252" y="798" width="42" height="42" fill="black" />
<rect shape-rendering="optimizeSpeed"  x="336" y="798" width="42" height="42" fill="black" />
<rect shape-rendering="optimizeSpeed"  x="378" y="798" width="42" height="42" fill="black" />
<rect shape-rendering="optimizeSpeed"  x="462" y="798" width="42" height="42" fill="black" />
<rect shape-rendering="optimizeSpeed"  x="672" y="798" width="42" height="42" fill="black" />
<rect shape-rendering="optimizeSpeed"  x="798" y="798" width="42" height="42" fill="black" />
<rect shape-rendering="optimizeSpeed"  x="0" y="840" width="42" height="42" fill="black" />
<rect shape-rendering="optimizeSpeed"  x="42" y="840" width="42" height="42" fill="black" />
<rect shape-rendering="optimizeSpeed"  x="84" y="840" width="42" height="42" fill="black" />
<rect shape-rendering="optimizeSpeed"  x="126" y="840" width="42" height="42" fill="black" />
<rect shape-rendering="optimizeSpeed"  x="168" y="840" width="42" height="42" fill="black" />
<rect shape-rendering="optimizeSpeed"  x="210" y="840" width="42" height="42" fill="black" />
<rect shape-rendering="optimizeSpeed"  x="252" y="840" width="42" height="42" fill="black" />
<rect shape-rendering="optimizeSpeed"  x="336" y="840" width="42" height="42" fill="black" />
<rect shape-rendering="optimizeSpeed"  x="378" y="840" width="42" height="42" fill="black" />
<rect shape-rendering="optimizeSpeed"  x="462" y="840" width="42" height="42" fill="black" />
<rect shape-rendering="optimizeSpeed"  x="504" y="840" width="42" height="42" fill="black" />
<rect shape-rendering="optimizeSpeed"  x="546" y="840" width="42" height="42" fill="black" />
<rect shape-rendering="optimizeSpeed"  x="630" y="840" width="42" height="42" fill="black" />
<rect shape-rendering="optimizeSpeed"  x="798" y="840" width="42" height="42" fill="black" />
<rect shape-rendering="optimizeSpeed"  x="840" y="840" width="42" height="42" fill="black" /></svg>